<svg xmlns="http://www.w3.org/2000/svg" width="640" height="420" viewBox="0 0 640 420" fill="none">
<rect width="640" height="420" rx="28" fill="#F4F1E9"/>
<rect x="28" y="28" width="584" height="364" rx="24" fill="#EBF3E7"/>
<g opacity="0.18" stroke="#4C6C56" stroke-width="8">
<path d="M70 80L240 60L252 180L82 194Z"/>
<path d="M270 64L448 80L430 192L260 184Z"/>
<path d="M92 220L262 204L274 338L62 328Z"/>
<path d="M286 206L438 198L470 344L282 350Z"/>
<path d="M484 92L560 108L548 332L492 338L464 198Z"/>
</g>
<ellipse cx="176" cy="258" rx="64" ry="42" fill="#D78A63" fill-opacity="0.45"/>
<ellipse cx="230" cy="312" rx="40" ry="28" fill="#D78A63" fill-opacity="0.32"/>
<ellipse cx="382" cy="246" rx="46" ry="30" fill="#F1C96B" fill-opacity="0.42"/>
<ellipse cx="510" cy="156" rx="48" ry="34" fill="#F1C96B" fill-opacity="0.42"/>
<g>
<circle cx="160" cy="248" r="8" fill="#8F5A43"/>
<circle cx="190" cy="278" r="8" fill="#8F5A43"/>
<circle cx="224" cy="302" r="8" fill="#8F5A43"/>
<circle cx="378" cy="246" r="7" fill="#B0833A"/>
<circle cx="508" cy="156" r="7" fill="#B0833A"/>
</g>
<text x="66" y="374" font-family="Arial, sans-serif" font-size="22" fill="#314C39">Vista general del fundo con zonas sugeridas para validación</text>
</svg>